<?xml version="1.0" encoding="UTF-8"?>
<svg xmlns="http://www.w3.org/2000/svg" xmlns:xlink="http://www.w3.org/1999/xlink" width="30pt" height="30pt" viewBox="0 0 30 30" version="1.1">
<g id="surface1">
<path style=" stroke:none;fill-rule:nonzero;fill:rgb(255%,255%,255%);fill-opacity:1;" d="M 21.324219 0 L 4.816406 0 C 3.304688 0 2.0625 1.238281 2.0625 2.75 L 2.0625 22.011719 L 4.816406 22.011719 L 4.816406 2.75 L 21.324219 2.75 Z M 25.453125 5.503906 L 10.320312 5.503906 C 8.804688 5.503906 7.566406 6.742188 7.566406 8.253906 L 7.566406 27.519531 C 7.566406 29.03125 8.804688 30.265625 10.320312 30.265625 L 25.453125 30.265625 C 26.964844 30.265625 28.207031 29.03125 28.207031 27.519531 L 28.207031 8.253906 C 28.207031 6.742188 26.964844 5.503906 25.453125 5.503906 Z M 25.453125 27.519531 L 10.320312 27.519531 L 10.320312 8.253906 L 25.453125 8.253906 Z M 25.453125 27.519531 "/>
</g>
</svg>
